<svg xmlns="http://www.w3.org/2000/svg" viewBox="0 0 31.818 34.266"><defs><style>.a{fill:#3d3d3f;}</style></defs><g transform="translate(0 0)"><path class="a" d="M49.368,5.622A2.351,2.351,0,0,0,47.647,4.9H45.2V3.06A2.947,2.947,0,0,0,44.3.9,2.947,2.947,0,0,0,42.14,0H40.916a2.946,2.946,0,0,0-2.161.9,2.945,2.945,0,0,0-.9,2.161V4.9H30.514V3.06A2.946,2.946,0,0,0,29.615.9,2.946,2.946,0,0,0,27.454,0H26.231A2.946,2.946,0,0,0,24.07.9a2.946,2.946,0,0,0-.9,2.161V4.9H20.724A2.352,2.352,0,0,0,19,5.622a2.352,2.352,0,0,0-.727,1.721V31.819a2.482,2.482,0,0,0,2.448,2.447H47.647a2.482,2.482,0,0,0,2.448-2.447V7.343A2.353,2.353,0,0,0,49.368,5.622Zm-23.137,26.2H20.724V26.311h5.507Zm0-6.731H20.724V18.969h5.507Zm0-7.343H20.724V12.238h5.507ZM25.8,9a.587.587,0,0,1-.182-.43V3.06a.62.62,0,0,1,.612-.612h1.224a.621.621,0,0,1,.612.612V8.567a.621.621,0,0,1-.612.612H26.231A.588.588,0,0,1,25.8,9Zm7.773,22.822H27.454V26.311h6.119Zm0-6.731H27.454V18.969h6.119Zm0-7.343H27.454V12.238h6.119Zm7.343,14.074H34.8V26.311h6.119Zm0-6.731H34.8V18.969h6.119Zm0-7.343H34.8V12.238h6.119ZM40.486,9a.588.588,0,0,1-.181-.43V3.06a.62.62,0,0,1,.612-.612H42.14a.62.62,0,0,1,.612.612V8.567a.62.62,0,0,1-.612.612H40.916A.587.587,0,0,1,40.486,9Zm7.161,22.822H42.139V26.311h5.507Zm0-6.731H42.139V18.969h5.507Zm0-7.343H42.139V12.238h5.507Z" transform="translate(-18.276)"/></g></svg>