<svg xmlns="http://www.w3.org/2000/svg" viewBox="0 0 40 40.001"><defs><style>.a{fill:#1a1a1a;}</style></defs><path class="a" d="M30.417,68.758a2.8,2.8,0,0,0-4.237,0c-.991.982-1.981,1.964-2.955,2.963a.584.584,0,0,1-.816.15c-.641-.35-1.323-.633-1.939-1.015a30.729,30.729,0,0,1-7.408-6.742,17.551,17.551,0,0,1-2.655-4.253.609.609,0,0,1,.15-.782c.991-.957,1.956-1.939,2.93-2.922a2.814,2.814,0,0,0-.008-4.337c-.774-.782-1.548-1.548-2.322-2.331-.8-.8-1.59-1.606-2.4-2.4a2.821,2.821,0,0,0-4.237.008c-1,.982-1.956,1.989-2.972,2.955A4.824,4.824,0,0,0,.035,53.309,13.789,13.789,0,0,0,1.1,59.244,36.064,36.064,0,0,0,7.5,69.907,39.611,39.611,0,0,0,20.62,80.17a18.972,18.972,0,0,0,7.267,2.114,5.325,5.325,0,0,0,4.57-1.74c.849-.949,1.806-1.815,2.705-2.722a2.832,2.832,0,0,0,.017-4.312Q32.806,71.127,30.417,68.758Z" transform="translate(-0.006 -42.297)"/><path class="a" d="M246.877,107.836l3.071-.524A13.787,13.787,0,0,0,238.287,96l-.433,3.088a10.655,10.655,0,0,1,9.023,8.748Z" transform="translate(-218.056 -88.009)"/><path class="a" d="M256.172,6.476A22.648,22.648,0,0,0,243.187,0l-.433,3.088a19.762,19.762,0,0,1,16.723,16.206l3.071-.524A22.814,22.814,0,0,0,256.172,6.476Z" transform="translate(-222.548)"/></svg>