<svg xmlns="http://www.w3.org/2000/svg" viewBox="0 0 77.93 80"><defs><style>.a{fill:#f6d437;opacity:0.89;}</style></defs><g transform="translate(-1.364)"><path class="a" d="M6.731,25.522h5.192V79.285L1.364,79.268,6.731,74.5V25.522Zm0-1.861,5.192.007V0H6.731Zm24.3,48.525a30.636,30.636,0,0,0-.19,3.721,7.144,7.144,0,0,0,.774,3.37l-18.107.008V25.522l4.673.379,31.3,6.439V51.415a3.9,3.9,0,0,0-.415.316h-2.2a3,3,0,0,0-1.147-.767,9.076,9.076,0,0,0-6.768.089,3.977,3.977,0,0,0-.943.538,3.023,3.023,0,0,0-.614.636,3.279,3.279,0,0,0-.63.68c-.332.484-.653.972-.975,1.463l-.381.578a12.969,12.969,0,0,0-1.539,3.475c-.611,2.029-1.158,4.244-1.676,6.771C31.774,67.249,31.305,69.69,31.032,72.186ZM16.045,66.961c0,.031.014.042.048.051.177.048.356.1.535.148.053.015.107.03.16.049a.392.392,0,0,1,.286.347c-.005.488,0,.978,0,1.468a1.251,1.251,0,0,0,.008.159.642.642,0,0,0,.277.454.982.982,0,0,0,.393.168c.289.063.506-.074.506-.317V67.215c-.062-.017-.116-.03-.171-.048s-.055,0-.055.033q0,.594,0,1.189v.833c0,.138-.079.206-.236.188a.866.866,0,0,1-.207-.05.362.362,0,0,1-.277-.35c0-.528,0-1.059,0-1.587a.7.7,0,0,0-.517-.608c-.236-.077-.472-.137-.708-.2-.03-.009-.042,0-.042.024C16.047,66.745,16.048,66.853,16.045,66.961Zm0,3a.61.61,0,0,0,.1.339.81.81,0,0,0,.479.337c.339.1.678.189,1.016.284.043.014.086.027.129.045a.346.346,0,0,1,.259.347c0,.338,0,.679,0,1.018,0,.008,0,.017,0,.025s.019.031.03.034c.061.02.124.037.193.056v-.031c0-.427,0-.852,0-1.28a.577.577,0,0,0-.217-.41.88.88,0,0,0-.356-.19c-.348-.1-.7-.193-1.047-.293-.2-.058-.355-.183-.35-.39.008-.352,0-.708,0-1.06a.155.155,0,0,1,0-.027c0-.023-.009-.037-.039-.045-.052-.014-.1-.027-.156-.043-.036-.012-.046,0-.045.026C16.046,69.122,16.045,69.54,16.046,69.959ZM18.255,74.1a.368.368,0,0,0-.074-.22l-.407-.668q-.605-1-1.212-1.989a.59.59,0,0,0-.075-.1c-.081-.083-.169-.083-.193,0a.393.393,0,0,0-.011.1c0,.677,0,1.35,0,2.027,0,.03-.011.039-.048.027-.061-.018-.121-.035-.186-.052v.4c.062.016.121.036.181.049.041.011.054.025.052.061,0,.1,0,.21,0,.319a.071.071,0,0,0,.019.039c.071.022.142.041.215.061,0-.017,0-.031,0-.046,0-.1,0-.2,0-.3,0-.039.011-.048.057-.034q.717.2,1.434.4a.578.578,0,0,0,.14.021A.088.088,0,0,0,18.255,74.1ZM16.57,71.626c-.009-.014-.019-.025-.029-.039h-.014v1.776l.03.011,1.234.344c.051.014.057.005.029-.042Q17.195,72.649,16.57,71.626ZM49.482,30.834V10.2L18.884,0H13.508V23.669l4.85.422ZM43.358,61.749l-.992-1.084a.224.224,0,0,0-.338,0l-.911,1a.884.884,0,0,0-.291.63v1.9a.647.647,0,0,0,.646.648h1.443a.648.648,0,0,0,.647-.648v-1.9a.879.879,0,0,0-.206-.542h0ZM41.7,59.931l-1.085-.994v0a.88.88,0,0,0-.541-.206h-1.9a.647.647,0,0,0-.645.647v1.443a.646.646,0,0,0,.645.646h1.9a.878.878,0,0,0,.63-.292l1-.911A.222.222,0,0,0,41.7,59.931Zm9.846-.171H61.37a.885.885,0,0,0,.884-.885V53.742a.885.885,0,0,0-.883-.884H51.545a.884.884,0,0,0-.884.884v5.132A.887.887,0,0,0,51.544,59.759Zm-9.515-.013a.224.224,0,0,0,.338,0l.992-1.085h0a.877.877,0,0,0,.206-.541V56.216a.646.646,0,0,0-.647-.646H41.472a.646.646,0,0,0-.647.646v1.905a.876.876,0,0,0,.292.629Zm32.056-1.234a1.5,1.5,0,1,1-1.5,1.5A1.5,1.5,0,0,1,74.085,58.512Zm0,.5a.984.984,0,1,0,.986.982A.984.984,0,0,0,74.085,59.015ZM70,57.3h1.441l-.721-1.22Zm2.225-.52a1.5,1.5,0,1,1-1.5-1.5A1.5,1.5,0,0,1,72.225,56.776Zm-.457.707L70.72,55.711l-1.046,1.772ZM73.287,60a.8.8,0,1,0,.8-.8A.8.8,0,0,0,73.287,60Zm-1.062,3.264a1.5,1.5,0,1,1-1.5-1.5A1.5,1.5,0,0,1,72.225,63.262Zm-1.293,0,.705-.705-.171-.172-.706.705-.706-.705-.171.172.706.705-.706.705.171.172.706-.705.706.705.171-.172Zm8.36,12.01a4.248,4.248,0,0,1-1.8,3.712c-2.526,1.952-5.939.679-6.661-.389a19,19,0,0,1-1.828-4.165c-.4-1.172-.8-2.344-1.19-3.519a1.153,1.153,0,0,0-.755-.655c-.039-.016-.115.02-.159.053a4.584,4.584,0,0,1-5.645-.095.568.568,0,0,0-.326-.114l-3.06,0v.006l-1.421,0-1.421,0V70.1l-3.06,0a.579.579,0,0,0-.326.114A4.584,4.584,0,0,1,46,70.309c-.045-.033-.12-.071-.159-.053a1.155,1.155,0,0,0-.755.655c-.391,1.176-.791,2.347-1.189,3.519a19.044,19.044,0,0,1-1.829,4.165c-.722,1.066-4.134,2.341-6.662.389a4.252,4.252,0,0,1-1.8-3.712,28.087,28.087,0,0,1,.174-3.4c.249-2.269.667-4.515,1.124-6.752.451-2.2.97-4.385,1.618-6.537a10.362,10.362,0,0,1,1.212-2.777c.442-.668.876-1.342,1.33-2a1.062,1.062,0,0,1,.366-.28c.1-.056.177-.1.185-.233a.324.324,0,0,1,.126-.2,1.286,1.286,0,0,1,.317-.177,6.368,6.368,0,0,1,4.828-.068.269.269,0,0,1,.2.289c-.02.222.065.345.291.365a.157.157,0,0,1,.051.018,2.613,2.613,0,0,0,1.216.267h3.6l-.012,5.089a1.313,1.313,0,0,0,1.311,1.313H61.37a1.313,1.313,0,0,0,1.311-1.313V53.784h3.57a2.618,2.618,0,0,0,1.217-.267.121.121,0,0,1,.05-.018c.225-.02.311-.143.292-.365a.267.267,0,0,1,.2-.289,6.357,6.357,0,0,1,4.828.068,1.376,1.376,0,0,1,.317.177.324.324,0,0,1,.126.2c.008.135.083.175.185.233a1.057,1.057,0,0,1,.366.28c.454.661.888,1.334,1.329,2a10.364,10.364,0,0,1,1.213,2.777c.648,2.153,1.167,4.338,1.618,6.537.458,2.237.875,4.483,1.124,6.752A27.634,27.634,0,0,1,79.292,75.272ZM47.773,57.245a.922.922,0,1,0,1.845,0v-1.9a.922.922,0,1,0-1.845,0Zm-.381,2.861a5.167,5.167,0,1,0-5.167,5.167A5.168,5.168,0,0,0,47.392,60.106Zm4.154,7.635a2.685,2.685,0,1,0-2.685,2.684A2.684,2.684,0,0,0,51.546,67.741Zm4.742.057a1.519,1.519,0,0,0,.155-.005.445.445,0,0,0,.368-.229.587.587,0,0,0,.058-.326.449.449,0,0,0-.451-.419H54.188c0,.052,0,.1,0,.143s.013.046.048.046c.389,0,.777,0,1.167,0h.818a.227.227,0,0,1,.248.194.473.473,0,0,1,.007.173.237.237,0,0,1-.268.23c-.519,0-1.038,0-1.559,0a.446.446,0,0,0-.454.428c-.011.194-.005.391-.007.585,0,.025.008.035.034.035.107,0,.213,0,.321,0,.03,0,.037-.012.037-.039,0-.146,0-.3,0-.443a1.09,1.09,0,0,1,.005-.132.25.25,0,0,1,.262-.237C55.328,67.8,55.808,67.8,56.288,67.8Zm3.034-.978h-.03c-.419,0-.837,0-1.255,0a.421.421,0,0,0-.344.179.488.488,0,0,0-.089.3c0,.289,0,.578,0,.868a.257.257,0,0,1-.286.289c-.348-.006-.7,0-1.043,0h-.027c-.023,0-.033.008-.033.032,0,.043,0,.086,0,.129s.011.037.039.037h1.236a.548.548,0,0,0,.3-.083.452.452,0,0,0,.2-.4c0-.28,0-.56,0-.84A.846.846,0,0,1,58,67.223a.231.231,0,0,1,.174-.2.341.341,0,0,1,.1-.011h1a.065.065,0,0,0,.024,0c.011-.008.025-.016.025-.025C59.323,66.93,59.322,66.878,59.322,66.82Zm3.962-9.576a.923.923,0,1,0,1.846,0v-1.9a.923.923,0,1,0-1.846,0Zm3.439,10.5a2.685,2.685,0,1,0-2.684,2.684A2.684,2.684,0,0,0,66.723,67.741Zm9.119-7.635a5.167,5.167,0,1,0-5.167,5.167A5.167,5.167,0,0,0,75.842,60.106Zm-6.879-.09a1.5,1.5,0,1,1-1.5-1.5A1.5,1.5,0,0,1,68.963,60.016Zm-.685-.836H66.641v1.635h1.637Zm-22.134-.446h-1.9a.877.877,0,0,0-.541.206v0l-1.085.993a.223.223,0,0,0,0,.337l1,.911a.879.879,0,0,0,.629.292h1.9a.646.646,0,0,0,.647-.647V59.381A.645.645,0,0,0,46.144,58.734Zm21.948.63H66.826v1.267h1.265Z"/></g></svg>