<svg xmlns="http://www.w3.org/2000/svg" viewBox="0 0 108.966 80"><defs><style>.a{fill:#f6d437;}</style></defs><g transform="translate(0 -3.406)"><path class="a" d="M24.065,30.487a4.259,4.259,0,0,1-4.252-4.252V21.983h4.252c6.778,0,8.5-2.3,8.5-2.3v6.557a4.259,4.259,0,0,1-4.252,4.252Z" transform="translate(64.435 52.919)"/><path class="a" d="M7.065,30.487a4.259,4.259,0,0,1-4.252-4.252V19.678s1.726,2.3,8.5,2.3h4.252v4.252a4.259,4.259,0,0,1-4.252,4.252Z" transform="translate(9.148 52.919)"/><g transform="translate(0 28.923)"><path class="a" d="M108.966,19.242a9.816,9.816,0,0,0-19.02-3.431L85.281,26.258a106.314,106.314,0,0,0-30.535-4.648,111.989,111.989,0,0,0-31.1,4.673l-4.418-9.8a9.809,9.809,0,1,0-12,12.2L9.044,44.33c1.922,6.638,11.421,6.8,11.421,6.8H88.5s9.5-.166,11.421-6.812l1.82-15.644A9.809,9.809,0,0,0,108.966,19.242Z" transform="translate(0 -9.407)"/></g><path class="a" d="M3.328,23.821A15,15,0,0,1,17.5,34.187l2.152,4.784c4.163-1.5,19.13-2.947,28.587-2.947,9.2,0,23.952,1.344,28.034,2.832l2.445-5.481a14.99,14.99,0,0,1,13.9-9.555c.451,0,.88.094,1.327.132,0-.026,0-.055,0-.081A20.464,20.464,0,0,0,73.492,3.406H22.467A20.464,20.464,0,0,0,2,23.872c0,.026,0,.055,0,.081C2.447,23.918,2.877,23.821,3.328,23.821Z" transform="translate(6.508 0)"/></g></svg>