<svg xmlns="http://www.w3.org/2000/svg" viewBox="0 0 107.741 80"><defs><style>.a{fill:#f6d437;}</style></defs><g transform="translate(0 0)"><path class="a" d="M105.461,113.62C100.177,89.4,92.725,83.429,88.189,81.035,80.922,77.2,72.5,79.431,69.7,80.878c-3.173,1.634-5.315,4.746-8.541,6.1-3.727,1.554-8.8,1.976-12.61.1-3.038-1.5-5.719-4.7-9.4-6.116-4.666-1.8-12.438-4.324-20.132,1.191C17.2,83.454,4.228,94.331.331,128.31-2.072,149.262,9.414,156,8.992,155.7c2.955,2.118,9.572,5.7,18.538.089,5.993-3.746,10.856-11.145,10.856-11.145s2.167-4.115,5.045-5.864c2.038-1.24,5.085-.3,5.085-.3H59.3a13.076,13.076,0,0,1,5.826.631,8.675,8.675,0,0,1,3.65,3.533s7.107,9.184,13.918,13.866c2.9,1.988,14.552,4.278,20.569-3.071C107.191,148.627,109.872,133.838,105.461,113.62Zm-57.6-2.145a3.3,3.3,0,0,1-3.266,3.33H36.428v8.338a3.3,3.3,0,0,1-3.266,3.336h-2.45a3.3,3.3,0,0,1-3.265-3.336v-8.338H19.275a3.3,3.3,0,0,1-3.266-3.33v-2.5a3.3,3.3,0,0,1,3.266-3.336h8.169V97.311a3.3,3.3,0,0,1,3.266-3.336h2.45a3.3,3.3,0,0,1,3.266,3.336v8.332h8.169a3.3,3.3,0,0,1,3.266,3.336v2.5ZM70.87,123.14a6.251,6.251,0,1,1,6.125-6.251A6.186,6.186,0,0,1,70.87,123.14ZM82.1,109.256a6.18,6.18,0,1,1,6.057-6.183A6.12,6.12,0,0,1,82.1,109.256Z" transform="translate(0 -78.788)"/></g></svg>